<svg width="32" height="32" viewBox="0 0 32 32" fill="none" xmlns="http://www.w3.org/2000/svg">
<rect width="32" height="32" fill="#0B1D26"/>
<path d="M0.959961 27H9.85596V26.552C6.65596 26.136 5.69596 24.792 5.69596 21.56V6.87198H5.88796L14.208 27.032H15.36L22.816 6.87198H22.976V24.728C22.976 26.008 22.176 26.456 19.904 26.552V27H30.944V26.552C28.256 26.456 27.616 25.944 27.616 24.728V6.96798C27.616 5.75198 28.256 5.20798 30.944 5.11198V4.69598H22.784L16.736 21.144H16.576L9.98396 4.69598H0.959961V5.11198C3.71196 5.17598 4.89596 6.64798 4.89596 8.56798V21.56C4.89596 24.792 3.96796 26.168 0.959961 26.552V27Z" fill="white"/>
</svg>
